<svg version="1" xmlns="http://www.w3.org/2000/svg" viewBox="0 0 900 1149"><path d="M616.5 6.6c-17.7 3.8-29.4 9.5-38.4 18.7-3.6 3.6-7.1 7.7-7.8 9.1-1.9 3.7-4.6 4.8-8 3.5-1.5-.6-6.6-1.9-11.3-2.9-4.7-1-10.3-2.6-12.5-3.6-2.2-.9-5.8-2.1-8-2.5-2.2-.4-7.2-1.5-11.2-2.5-5.7-1.3-7.5-1.4-8.7-.5-1.2 1-1.5 5.7-1.9 25.4-.3 23.7-4.1 67.4-7.3 85.1-.6 3.5-2.7 4.5-11.9 6.1-16.6 2.9-48.8 11.6-50.1 13.6-.3.5-1.6.9-2.9.9-1.3 0-2.6.4-2.9.9-.3.4-2.4 1.1-4.8 1.5-2.3.4-5.6 1.3-7.2 2-1.7.8-5.8 2.4-9.1 3.6-3.3 1.2-6.8 2.6-7.7 3.1-1 .5-2.4.9-3.1.9-2.3 0-17.8 6.9-26.5 11.7-13.1 7.4-24.9 19.6-33.1 34.3-2.5 4.4-6.1 13.3-6.1 14.8 0 1-.4 2.2-.9 2.7-.7.9-3.4 10.6-7.1 25.5-1 4.1-2 11.3-2.5 19-.2 3-.8 8.4-1.4 12-.6 3.6-1.6 10.1-2.2 14.5-1.3 9.4-2.6 17.8-4.1 25.9-1.2 6.5-3.6 9.3-10.3 12.5-2.2 1-6.9 3.2-10.5 5-5 2.3-9.1 5.5-16.8 13.2-5.6 5.5-10.9 11.4-11.7 12.9-.8 1.6-2.1 3.3-2.9 3.7-2.1 1.2-10.3 13.8-11 17-.4 1.5-1.8 5.2-3.2 8-1.3 2.9-2.7 6.7-3.1 8.5-.3 1.8-1.2 4.2-1.9 5.3-2.3 3.6-5.2 16.9-5.9 27l-.7 10-6 7.5c-3.3 4.1-6.6 8.3-7.4 9.3-.8.9-3 4.1-5.1 7-2 2.8-4.9 6.8-6.4 8.8-1.6 2-2.9 4.1-2.9 4.6s-1.2 2-2.6 3.4c-1.4 1.3-4.9 6.2-7.7 10.9s-6.1 9.8-7.3 11.5c-2 2.7-10.1 16.3-14.3 24-1 1.6-2.8 4.8-4.2 7-1.5 2.2-3.9 6.7-5.6 10-1.6 3.3-4.1 7.8-5.4 10-3.2 5.1-28.2 55-33.9 67.5-2.3 5.2-8.7 18.6-14.1 29.7-5.5 11-9.9 20.6-9.9 21.1s-2.2 5.3-5 10.6c-2.7 5.3-4.7 10.2-4.4 10.9.2.6 2.8 2.3 5.6 3.7 6.7 3.2 7.8 5 5.6 9.2-2.8 5.4-4.8 10.9-4.8 13.1 0 1.1-.6 2.8-1.4 3.6-.7.9-2.1 3.8-3.1 6.6-1 2.7-2.5 5.9-3.2 7-.7 1.1-1.3 2.6-1.3 3.5 0 .8-1.6 5.1-3.5 9.5s-3.5 9.6-3.5 11.6c0 1.9-.5 4-1 4.5-.6.6-1.2 6.6-1.5 13.5l-.4 12.4-9.3 3.5c-11.2 4.3-27.6 14.8-33.7 21.7-2.3 2.6-6 6.6-8.1 8.8-12.6 13.3-27.8 47.2-31 69-3.5 24.7-3.5 25.6-1.2 48C3 966.9 3.3 968 8.1 982.2c4.3 12.5 11.9 28.3 17.2 35.8 4.9 7 18.9 20.4 23.8 22.9 2.4 1.3 6.8 3.6 9.8 5.1 3 1.6 6.2 3.1 7 3.4.9.3 4.1 1.4 7.1 2.6 3 1.1 6.6 2.1 8 2.1 1.4.1 4.1.7 6 1.4 9.8 3.5 47.5 6.6 59.5 4.8 9.4-1.4 20-6.7 28.5-14.3 8.1-7.2 11.7-13.8 13.3-24.3 1-6.4 1.3-7.1 4.2-8.3 1.8-.7 3.7-2 4.5-2.8.7-.9 2-1.6 2.9-1.6.9 0 2.7-.7 3.9-1.6 1.2-.8 3-1.4 4-1.2 1.4.3 1.7 1.3 1.4 6.8-.2 3.6-.7 7.8-1.2 9.5-.9 2.8-5.7 36.6-5.8 41-.1 1.1-1.3 8.1-2.7 15.5-1.4 7.4-3 17.1-3.5 21.5-1.3 11.4-2.9 21.5-3.4 22.4-.3.4-1.2 5.2-2.1 10.7l-1.6 9.9 2.2 1.8c1.9 1.5 3.9 1.7 14.2 1.5l11.9-.3 1.9-6c1-3.3 1.9-7 1.9-8.2 0-1.2.4-2.4.9-2.7.5-.4 1.4-3.9 2.1-7.9.6-3.9 1.5-8.6 2.1-10.3.5-1.7.9-4.8.9-7 0-2.1.5-5.5 1-7.4.6-1.9 1.5-7.3 2-12 1-8 1.5-13.4 4.1-41 .6-6.3 1.4-15.1 1.9-19.5 1-10 6.8-45.9 8-50 .5-1.7 1.9-6.3 3.1-10.2 1.2-4 2.8-7.8 3.6-8.5 1.6-1.3 6.6-.7 27.8 3.2 30.4 5.7 62.5 6.9 74.1 2.7 14.7-5.3 23.1-13 29.8-27 2.5-5.3 4.6-10.8 4.6-12.2 0-1.5.5-3.6 1.1-4.7 2.1-3.9-.8-16.8-6.2-27.9-2.7-5.4-5.3-9.9-5.7-9.9-.5 0-1.4-1.1-2-2.5-3.3-7.2-23.5-24.2-37.8-31.8-19.3-10.2-23.5-12.4-29.4-14.8-3.6-1.5-7.8-3.4-9.5-4.3-1.6-.9-3.6-1.6-4.2-1.6-.7 0-4.8-1.8-9.2-4-4.3-2.2-8.9-4-10-4-3.1 0-6.1-3.4-5.4-6.2.3-1.3 1-2.8 1.4-3.4.9-1.1 4.2-11.5 5.4-16.9 2.2-10.1 3.5-21 5.5-47 .6-9 1.8-16.8 4.9-32 1.2-6 4-14 7.5-21.5l2.6-5.6-1.9-5.4c-1.7-5.2-4.1-21.8-4.1-28.5 0-8.7-5.6-20.7-10.4-22.5-2.9-1-4.4-.2-6.2 3.1-1.3 2.6-1.3 3.8.2 11.2.9 4.5 2.3 9.4 3 10.9 2.8 5.5.6 17.8-3.2 17.8-1.3 0-11.4-14.6-11.4-16.4 0-.7-2.4-3.6-5.4-6.5-5.8-5.7-8.6-6.3-8.6-1.7 0 1.4-.4 2.8-1 3.1-2.8 1.7 1.6 12.2 13.2 31.5 2.1 3.6 2.9 5.7 5.4 14.8 2.6 9.6 1.5 17.2-4 28-3.7 7.3-4.9 7.7-14 4.7-4.2-1.4-8.9-2.5-10.4-2.5-1.6 0-3.2-.4-3.7-.9-.6-.5-6.6-2.5-13.5-4.6-25.8-7.6-45.6-14.8-58.8-21.1-14.4-6.9-20.2-11.3-20.2-15 0-2.3 9.1-24.6 14-34.4 1.5-3 3.9-8.4 5.3-12 4.7-11.7 35.6-72.2 43.2-84.5 4.1-6.6 8-12.9 8.5-14 1.6-3 2.9-5 10.5-16.6 3.9-5.8 7.5-11.3 8-12.2 4.1-6.6 16.5-23 18.1-24 .8-.5 2.2 1.1 4.5 5 2.2 3.9 10.1 12.7 24.3 27.1 11.6 11.7 22.1 22.9 23.2 25 2.2 3.7 2.2 4 1.3 35.2-.5 17.3-1.3 40.3-1.8 51.1-.9 18.6-.6 28.4 1.8 56.9 2 23.5 9.3 45.9 20.4 62.5 5.2 7.7 6.1 8.7 12.6 14.9 3 2.8 8.4 8.1 12 11.7 8.3 8.3 14.9 13.8 31.6 26.3 3.9 2.9 8.5 6.1 10.3 7.1 1.7 1.1 3.2 2.2 3.2 2.6 0 .3 2.5 2.2 5.6 4 3.1 1.9 6.8 4.3 8.2 5.5 7.3 5.6 34.8 15.3 49.6 17.4 17.6 2.6 27.5 3.3 46.1 3.4 33.1.1 57.7-2.8 76-8.9 2.3-.7 7-1.9 10.5-2.5 3.6-.7 9.2-2 12.5-3 3.3-1 11.9-3.5 19-5.5 15.4-4.4 29.6-9.2 30.9-10.5.6-.6 1.8-1 2.8-1 1 0 5.3-1.8 9.6-3.9 4.2-2.1 10.2-4.9 13.2-6.2 3-1.2 6-2.7 6.5-3.3.6-.6 2.7-1.9 4.8-2.9 2.1-.9 4.3-2.2 5-2.7.7-.6 3.8-2.7 6.9-4.7 11.7-7.8 27.9-23.3 34.2-33 1.4-2.1 4-5.8 5.7-8.3 5.6-7.9 14-26.1 16.9-37 5.5-20 7-32.5 7.7-61.5.6-27.9-.4-49.3-3.3-69.5-.8-5.8-1.9-14.3-2.4-19-1.3-12.2-2.7-23.4-4-31.5-3-18.4-3.3-17.3 6.3-22.3 15.5-8.3 30.9-25.5 39.7-44.6 1.7-3.6 3.5-6.8 4-7.1.5-.3 2.9 2.5 5.3 6.2 2.5 3.8 5.4 7.7 6.6 8.7 1.1 1.1 2.1 2.3 2.1 2.8s1.2 2.4 2.6 4.3c1.4 1.9 2.9 4.6 3.3 6.2.5 1.9 1.4 2.8 2.8 2.8 2.3 0 10.3-6.8 10.3-8.7 0-.7-2.4-4.8-5.3-9.2-2.8-4.3-6.1-9.2-7.1-11-5.4-8.8-10.3-15.6-14.1-19.6-3.4-3.5-4.7-5.9-5.9-10.8-.9-3.5-1.6-7.8-1.6-9.6 0-2.7-5.3-19.3-8.6-27.1-6.2-14.4-24.8-35.4-41.1-46.3-8.9-6-30.4-17.2-32.9-17.2-2 0-2.9-2.8-5.3-16-1.2-6.3-2.5-13.8-3.1-16.5-.5-2.8-1.7-9.3-2.6-14.5-3-18-3.5-20.3-4.4-22.1-.6-1-1-3-1-4.6 0-1.5-1.9-10-4.1-18.8-2.2-8.8-4.3-16.9-4.6-18.1-.6-2.5 2-3.9 4.6-2.5 1 .6 5.2 2.2 9.5 3.7l7.7 2.6 2.4-2.2c1.3-1.2 3.3-4.5 4.4-7.4 2.8-7.2 10.1-30.6 10.1-32.3 0-1.7 4.5-10 7-12.8 2.4-2.8 12.3-18.3 15-23.5 1.2-2.4 6.9-9.2 12.6-15 5.7-5.9 10.4-11.3 10.4-12.1-.1-2.5-4.4-6.3-10.9-9.7-5.7-3-8.1-3.8-17.6-5.7-1.6-.4-4.3-1.3-6-2-2.8-1.3-8.8-3-18.2-5.5l-4.3-1.1v-6.7c0-3.7-.5-8.5-1.1-10.7-.6-2.2-1.5-6.1-2-8.7-1-4.9-5.5-13.8-6.9-13.8-.5 0-1.2-1-1.6-2.3-.8-2.7-12-14.4-19.4-20.1-9.7-7.6-28.1-15.7-42.5-18.8-5.1-1.1-28.4-2-32-1.2zM639 30.5c11.4 2.5 13.6 3.2 19.5 5.9 15.8 7.2 24.5 14.7 30.1 25.7 3.9 7.9 4.7 14.9 1.6 14.9-1.8 0-18.1-5.2-48.2-15.2-44.8-15.1-42.5-14.2-42.8-16.5-.4-2.7 6.4-9.8 11.6-12.1 3.7-1.5 14.6-3.9 19.2-4.1 1.4 0 5.4.6 9 1.4zm-97 24.9c8.9 2.3 19.7 5.4 24.5 7.1 2.2.8 8.1 2.4 13 3.6 5 1.1 11.7 2.9 15 4 3.3 1.1 8.8 2.6 12.2 3.4 3.4.8 9.5 2.6 13.5 4 4 1.5 10 3.3 13.3 4 3.3.8 9.8 2.7 14.5 4.4 10 3.4 26.2 8.4 34.1 10.5 3.1.8 6.5 1.9 7.5 2.4 3.2 1.8 11.3 5.2 12.2 5.2.4 0 7.1 2.5 14.9 5.5 7.8 3 14.9 5.5 15.7 5.5 3 0 2.9 4.4-.3 9.9-1.7 2.8-3.1 5.5-3.1 5.8 0 .4-.6 1.4-1.4 2.2-.7.9-3 4.7-5.1 8.6-2 3.8-4.2 7.6-4.7 8.2-.6.7-4.5 8.1-8.9 16.5l-7.8 15.3-4-.2c-2.2-.1-9.6-1.8-16.3-3.8-6.8-1.9-13.9-4-15.8-4.6-1.9-.6-5.3-1.7-7.5-2.6-2.2-.8-4.9-1.9-6-2.3-1.1-.4-9.4-3.1-18.5-5.9-9.1-2.9-20.1-6.5-24.5-8.1-4.4-1.6-9.3-3.3-11-3.6-1.6-.4-3.4-1-4-1.4-.5-.5-5.5-2.3-11-4-5.5-1.8-15.5-5.2-22.2-7.6-6.8-2.4-12.6-4.4-13-4.4-.5 0-4.2-1.3-8.3-3-4.1-1.6-8.4-2.9-9.6-3-1.1 0-2.9-.6-3.9-1.4-1.8-1.3-1.8-1.8-.2-15.7 2.6-22.2 3.7-35.6 3.7-44.4 0-4.4.3-9.1.7-10.3.7-2.7.9-2.6 12.3.2zm18 105.1c3.6 1.4 7.4 3 8.5 3.5 1.1.6 5.2 2.1 9 3.4 3.9 1.4 13.1 4.8 20.5 7.6s16.2 6 19.5 7.1c3.3 1.1 7.5 2.7 9.3 3.6 3.1 1.4 6.3 2.3 19.7 6 3.3.8 8.6 2.5 11.8 3.6 5.6 1.9 5.9 2.2 8.9 8.6 3.3 7.1 7.6 20.3 9.7 30.1.4 1.9 1.3 4.5 1.9 5.7.7 1.2 1.2 3.7 1.2 5.7 0 1.9.9 7.2 2 11.8 2.6 10.9 5 23.8 6 31.8.4 3.6 2 13.2 3.4 21.5 1.5 8.2 3.4 19.3 4.2 24.5.8 5.2 2.4 13.5 3.5 18.5 2.6 11.4 3.6 16.1 5.5 26 .9 4.4 2.2 10.7 3 14 .8 3.3 1.8 8.7 2.4 12 .5 3.3 1.4 8.2 2 11 2.1 10 5.2 27.2 6 33.5.5 3.6 1.4 10.1 2 14.5.6 4.4 1.7 12.9 2.6 19 .8 6 1.9 17.7 2.4 26 1 16.8 2.5 30.6 4 38 .6 2.7 1.5 8 2 11.8.5 3.7 1.4 7.6 2 8.7.6 1.1.8 2.5.5 3-.5.9 1.3 13.2 5 33.7 1 5.5 1.5 14.8 1.5 28.2 0 19.5-.7 26.5-4.5 47.6-.9 4.5-1.7 9.9-1.9 12-.2 2.2-.8 5.1-1.4 6.5-.5 1.4-1.6 4.5-2.2 7-1.9 6.7-5.8 16.6-9.3 23.4-4.1 7.9-16.2 20.1-24.5 24.6-3.5 1.9-8 4.5-10 5.6-11.9 6.9-44.5 22.4-57.5 27.3-16.8 6.4-34.7 12.2-44.7 14.5-3.6.8-10.8 2.5-16 3.7-12.2 2.8-21.4 3.7-48 4.5-22.9.7-35.4-.2-51.2-3.7-12.3-2.7-29-7.5-32.7-9.3-1.6-.9-3.6-1.6-4.4-1.6-1.6 0-23.8-11.2-27.8-14-1.4-1.1-3.8-2.4-5.2-2.9-1.5-.6-3.4-1.7-4.4-2.6-1-.9-6.3-5-11.8-9-11.3-8.4-13-10-16.3-14.7-1.9-2.7-12.7-18.9-15.4-23.2-3.6-5.7-14-32.8-15.9-41.6-3-14.2-5.1-25.5-6-33-.5-4.7-1.4-9.9-1.9-11.5-1.2-3.8-1.1-97.6.1-103 .5-2.2 1.3-10.3 1.9-18 .6-7.7 1.5-18.7 2.1-24.5 1.1-11.2 2.2-25.6 3.8-46.5.5-7.2 1.2-13.7 1.5-14.5.5-1.4 1.3-13.7 4.6-66.8.6-9.5.9-17.6.6-18.1-.3-.4-.1-2.3.4-4.2.5-1.9 1.4-8.8 2-15.4.7-6.6 1.6-14.7 2-18 1.2-8.6 3-21.9 4-30 .8-6.6 2.3-14.3 4.9-26 .7-2.8 1.4-6.9 1.8-9.3.3-2.3 1-4.5 1.4-4.8.5-.3.9-1.5.9-2.8 0-1.2.4-2.6.8-3.1.4-.6 1.9-3.7 3.2-7 4.9-12.3 13.2-21.1 25.5-26.9 10.4-4.8 17-7.3 24-9.1 5.6-1.4 19.9-5.9 26-8.2 5.6-2.1 21.3-6.9 25.5-7.8 1.9-.4 4.4-1.3 5.5-1.9 1.1-.7 3.8-1.6 6.1-1.9 2.2-.4 7.4-1.7 11.5-3 9.6-3.1 17.9-5.3 25.4-6.7 3.3-.7 9.4-2.3 13.5-3.7 15.2-4.9 23.1-5.1 34-.8zm171.5 195.9c27.6 7.3 50.2 43.9 45.6 73.8-2.4 15.6-10.1 28.2-21.8 35.6-4.1 2.7-5.6 3.1-7.1 2.3-2.3-1.2-4.7-9.7-5.6-19.2-.3-3.6-1.3-9.2-2.2-12.4l-1.5-5.9 5.6-5.4c3.1-3 6-5 6.6-4.6 1.4.8.6 12.9-1.2 17.8-1.1 2.9-1 3.8.4 6 1.9 2.9 6.2 4.4 8.5 3 1.3-.9 3.3-4.2 6.8-11.4 4.9-10.1 5.8-31.9 1.7-41-2.6-5.9-10.4-14.4-16.2-17.7-2.5-1.5-4.8-3-5.1-3.4-.3-.3-3-2.1-6-4-10.8-6.6-17.8-12.7-16.3-14.3.9-.9 2.1-.8 7.8.8zm-417.2 5.3c1 1.7-1.1 4.3-6.2 7.7-2.9 2-5.9 3.6-6.7 3.6-.7 0-1.7.7-2.2 1.6-.5 1-1.4 1.4-2.1.9-1.7-1 1.8-4.6 8.7-9.2 2.8-1.9 5.2-3.9 5.2-4.4 0-1.1 2.7-1.2 3.3-.2zm-1.5 36.5c-.3 9.1-.5 10.3-2.1 10.6-2.3.5-6.3-3.1-7.6-6.8-.7-2.1-.5-3.4.6-5.2 8.2-12.2 9.5-12 9.1 1.4zm-34.3 5.2c-3.1 6.3-5.9 13.4-6.2 15.8-.3 2.4-1.1 4.9-1.7 5.7-.6.8-1.3 5.3-1.6 10-.3 4.7-.9 8.6-1.5 8.6-.5 0-2.1-2.3-3.4-5l-2.4-5 2.1-8.1c1.2-5 3.8-11 6.6-15.8 2.5-4.3 4.6-8.1 4.6-8.6 0-.4.7-1 1.5-1.4.8-.3 1.5-1.2 1.5-2.1 0-2.4 4.2-7.7 5.3-6.6.6.6-1.2 5.4-4.8 12.5zm458.9-5.2c.9 1.2 1.6 3.3 1.6 4.6 0 3-2.8 8.4-4 7.7-1.3-.8-3.4-11-2.7-12.9.9-2.3 3.3-2 5.1.6zM308 427c2.4 2.4 2.6 5 .3 5-2.3 0-5.3-2.9-5.3-5.2 0-2.4 2.5-2.3 5 .2zm-12.1 18.3c1.9 1.2 5.4 3.3 7.9 4.7 3.3 1.8 4.8 3.4 5.4 5.5.7 2.5-1.5 27.9-2.8 32.2-.6 2.1-2 1.5-6.8-3-4.4-4-5.8-6.7-3.6-6.7 1.7 0 4.3-5 4.2-8.3 0-1.7-2.4-7.8-5.3-13.4-6.3-12.6-6-15.7 1-11zM134.1 726.1c1.9.6 5 1.9 7 3 2 1 4.8 1.9 6.2 1.9 1.4 0 2.8.4 3.1.9.4.5 3.2 1.7 6.4 2.6 3.1.9 6.6 2.1 7.7 2.5 4.4 1.8 8.9 3 11.4 3 1.5 0 3.1.4 3.7.9 1 .9 17 5.5 24.9 7.1 17.7 3.6 37.4 7 41.1 7 5.4 0 7.5 1.9 6.8 6.3-.6 3.5-3.8 17.8-5.9 26.7-.7 3-1.6 8.6-2 12.3l-.8 6.9-3.1-.5c-1.7-.2-6.5-1.1-10.6-2-4.1-.8-12.7-2.5-19-3.7-6.3-1.2-14.4-2.9-18-3.7-13.4-3.2-42.8-5.4-61.5-4.6-17.6.7-18.1.4-17.1-9.6.8-7.9 4.5-23.3 8.4-35.6 1.6-5 3.5-11.5 4.1-14.5 2.1-9.2 1.6-8.7 7.2-6.9zm18.7 92.5c4.8.8 12.8 2.4 17.7 3.4 5 1 12.4 2.3 16.5 3 12.9 2 63.6 14.6 70.5 17.6 1.1.4 8.8 3.1 17 6 20.6 7.1 35.2 13.4 46.1 19.9 5.1 3 9.7 5.5 10.3 5.5.6 0 1.1.4 1.1.9s1.7 2 3.7 3.2c6.6 4.1 11.3 9.6 15.9 18.5 4.1 8.1 4.4 9.1 4.4 16.8 0 6-.5 8.8-1.8 10.7-5.5 8.4-17.3 12.8-34.2 12.9-13.8 0-31.7-3.4-68-13-28.9-7.7-35.2-9.2-44-11-12.7-2.5-25.9-4.3-27.6-3.6-2.1.8-1.7 4.8.9 7.8 1.2 1.4 5.4 4.7 9.2 7.2 15.7 10.1 18.5 14.1 18.5 26.4 0 10-2.2 17.3-7 23.8-3.8 5.1-11.5 10.4-15.1 10.4-1 0-2 .4-2.3.8-.3.4-8.3.9-17.8 1.1-11.8.2-17.5.6-18 1.4-1.2 1.9.2 5.9 4.3 12.1 4.2 6.4 4.8 9.8 2.7 17-1.5 5.3-3.2 7.3-9.1 10.3-8.1 4.1-22.9 4.1-36.2-.1-2.7-.8-7-2-9.5-2.7-2.5-.6-5.8-1.8-7.5-2.7-1.6-.9-5.5-2.8-8.5-4.3-17.6-8.6-30.4-21-35.6-34.4-9.4-24.2-11.8-36-11.8-57.5-.1-18.7 1.6-27.3 8-40.6 2.4-5.1 4.4-9.4 4.4-9.8 0-.3.8-1.4 1.8-2.4.9-1 4.4-5.1 7.6-9.1 6.3-7.7 31.2-32.1 32.7-32.1.5 0 2.8-1.2 5.2-2.7 2.3-1.6 8-4.9 12.7-7.5l8.5-4.6 12.8-.1c7.7-.1 16.3.5 21.5 1.5z"/><path d="M625.4 234c-7.9 3.5-13.4 14.1-11.8 22.8 2.5 13.5 14.3 23.2 28.4 23.2 6.1 0 6.1 0 11.4-5.4 9-9.3 9.9-19.5 2.7-31.6-5.7-9.8-19.8-13.9-30.7-9zm17.7 18.2c4.5 1.3 5.2 3.8 1.7 6.2-2.4 1.7-6.6 2.1-8.4.8-1.6-1.1-2.5-4.2-1.9-6.3.7-2.2 3.2-2.4 8.6-.7zM653 324.5c-5.2 1.9-12.6 4.1-16.5 5-3.8.8-9.2 2-12 2.6-4.5 1-15.1 1.8-42.5 3.2-10.5.5-27.7-.9-35-2.8-8.8-2.3-21-2.4-24.4-.1-2.5 1.6-2.8 2.3-2.4 6 1.1 9.4 6.3 15.2 16.3 18.1 7.4 2.2 28.4 4.7 33 4 2.2-.4 5.6-1.1 7.5-1.5 1.9-.5 8.2-1.4 14-2 5.8-.6 14.1-1.8 18.5-2.6s14.4-2.6 22.1-4c14.3-2.4 26.4-5.9 33.3-9.3 4.6-2.4 12.1-10.4 12.1-13 0-1.1-1.4-3.1-3.1-4.5-4.2-3.5-9-3.3-20.9.9zM413.2 360.5c-2.9.7-5.8 1.7-6.5 2.3-.6.5-2.6 1.3-4.4 1.7-2.9.6-10.6 5.1-20.5 12-4.7 3.3-8.8 11.4-8.8 17.4 0 7.5 7.1 16.7 12.2 15.9 2.4-.3 4.9-4.4 6.8-11 2.2-7.7 7.9-11 9.4-5.5.3 1.2 6 8 12.6 15.2 6.7 7.1 12.3 14 12.6 15.2.4 1.3.1 3.7-.5 5.4-.6 1.8-1.1 5.4-1.1 8 0 2.7-.7 9.1-1.6 14.1-1.2 6.7-1.5 13.2-1.2 23.3.6 18.4 2.8 27.4 9.6 40.5 5.8 11.2 10.8 17.5 21.2 27.1 9.3 8.7 15.6 12.7 24 15.3 3 .9 7 2.1 8.8 2.7 4.4 1.4 16.7 1.4 22.2 0 8.9-2.3 14.6-5.1 22.5-11.1 6.9-5.2 28.5-26.5 28.5-28.1 0-.5 1.4-2.4 3.1-4.3 3.5-4.1 5.9-7.3 12.5-16.8 2.5-3.8 5-7 5.5-7.4.5-.3.9-1.4.9-2.4s.6-2.3 1.3-2.7c1.2-.8 6.5-8.1 8-11.3.4-.8 2.5-4.2 4.7-7.5 4.8-7.4 19-30.5 19-31 0-.2 1.8-3 4-6.3 2.7-4.1 4.8-6.2 6.7-6.7 1.5-.4 10.2-1.3 19.3-2 21.1-1.7 26-3.7 26-10.9 0-4.1-2.6-6.3-9.1-7.5-3.3-.7-7.7-1-9.8-.7-2 .4-18.4 1.6-36.6 2.7-39.7 2.6-53.2 3.5-69 4.9-23.6 2-47.1 3-56 2.4-22.9-1.5-41.1-6.6-51.5-14.3-8.8-6.6-17.1-17.5-15.4-20.3.5-.7 3.6-.8 9.8-.4 10.5.8 12.6.3 12.6-2.9 0-6-5.6-13.2-11.9-15.4-4.3-1.4-13.1-1.2-19.9.4zm160.4 70.9c.3.7-.6 4.2-1.9 7.7-3.3 8.5-3.4 8.6-6.7 14.4-1.6 2.7-3.6 6.4-4.4 8-.8 1.7-3.2 5.1-5.5 7.6l-4 4.6-9.4.7c-5.1.3-12 1.3-15.3 2.2-4.5 1.3-10.9 1.7-27.2 1.8-20.3.1-21.4 0-22.9-1.9-1.3-1.7-1.4-5-1-20.8.3-10.4.9-19.3 1.3-19.7.5-.5 11.7-1.4 24.9-2 13.2-.7 32.3-1.7 42.5-2.4 26.3-1.8 29-1.8 29.6-.2zm-64.3 69.8c8.9 3.2 11.2 8.7 6.2 14.6-2.2 2.6-9.7 7.2-11.8 7.2-.4 0-1.5-1.7-2.6-3.8-1.1-2-3.4-5.3-5.2-7.2-4.8-5.3-8.1-11-7.4-12.7.8-2.1 12.8-1 20.8 1.9zm-35.8 5.8c3.9 2.4 7 6.3 11.5 14.4 3.1 5.7 3.2 6 1.4 7.4-4.7 3.5-21.9-2.5-29.2-10.1-4.3-4.5-3.9-6.5 1.8-8.4 2.5-.8 5.4-2.3 6.5-3.4 2.5-2.4 4-2.4 8 .1zM532 560.6c-8.4 3.7-15.5 5.4-28.1 6.9-15.8 1.8-23.8 3.8-29.1 7.2-3.2 1.9-3.9 2.9-3.6 5.1.5 4.2 5.9 5.8 16.1 4.6 4.5-.6 9-.8 10-.6 2.8.7 2 3-2.1 5.6-5.1 3.2-9.2 8.2-9.2 11.1 0 2 .8 2.7 4.1 3.6 3.1 1 4.5 1 5.7.1 1-.6 4.4-2.5 7.7-4.3 3.3-1.7 6.9-3.9 8.1-5 1.1-1 2.5-1.9 3.1-1.9 1.7 0 12.8-7.6 16.6-11.4 4.5-4.4 9.7-14.4 9.7-18.5 0-4.3-3-5.1-9-2.5zM780.6 613.7c-.3 1-.3 12.1-.1 24.8.4 21.4.8 24.8 4.1 40.7.8 3.5-1 3.7-6 .7-2.6-1.5-4.4-1.8-6.9-1.4-7.3 1.4-5.2 8.6 4.9 16.8 12 9.6 12 9.5 14.4 24.2 1.2 7.1 2.5 16.6 3 21 .5 4.4 1.3 12.3 1.9 17.5 1 9.4 2.1 16.7 4.1 28.5.6 3.3 1.7 9.6 2.5 14 1.7 10.2 4 20 5.1 21.7.5.7 1.2 4.4 1.6 8.3 2 18.2 2.7 24.3 3.3 28 .3 2.2 1.3 8.3 2.1 13.5 2 12.5 6 32.5 8 39.2 2.1 7.2 3.1 11.2 4.5 18.8.7 3.6 1.8 8.1 2.4 10 .7 1.9 1.8 7.3 2.4 12 .7 4.7 1.6 9.9 2.2 11.6.5 1.7.9 4 .9 5.3 0 3.7 9.3 50.9 11.2 56.6 1 3 2.5 21.5 3.4 41.5.3 5.8 1.2 17 2 25s1.9 18.1 2.4 22.5c.4 4.4 1.6 14 2.5 21.2l1.8 13.3h16.2c21 0 20 .8 19.1-16.7-.4-7.1-1.3-16.6-2.1-21.3-.8-4.7-1.6-9.9-1.9-11.5-1.1-7.8-3.8-22.4-4.6-25.5-1.9-7.1-5.1-21-5.9-25.7-2-11.2-8-37.1-15.1-65.6-1.1-4.3-2-8.9-2-10.2 0-3.4-4.6-23.7-8.5-38-.9-3.3-1.9-7.1-2.1-8.5-1.5-8.4-2.8-13.9-3.9-16.5-.7-1.7-1.8-6.9-2.4-11.7-.6-4.9-1.5-9.7-2.1-10.7-.5-1.1-1-3.8-1-6.1 0-4.8-1.6-16.9-3-22-.5-1.9-1.4-6.2-1.9-9.5-2-11.2-4.2-21.8-4.7-22.6-.2-.4-1.1-6.5-1.9-13.4-.8-7-1.8-13.2-2.2-13.8-.4-.6-1-4.3-1.4-8.1-1.9-17.2-8.6-51.9-12.4-64.6-5.2-17.3-7.8-41.8-5.5-51.8 1.6-7.1 3.3-12.4 5.8-18.3 3.5-8 6.2-19.7 6.2-26.5 0-10.1-2.8-13.1-7.5-8-2.4 2.6-3.5 5.1-6 14.1-2.7 9.5-4.5 14.9-5.5 16.5-2.6 4.1-6.9-5.2-7-15.4 0-9.2-4.2-20.2-8.9-23.5-3.6-2.6-4.8-2.6-5.5-.4zM738.5 785.9c1.2 9.1 0 10.5-17.9 19.6-8.7 4.4-17.3 9.3-19.3 11-10.8 9.4-13.1 11.8-16 17.7-6.9 13.4-7 30.6-.2 42.4 3.2 5.5 12.4 14.8 19.3 19.6 13.8 9.4 36.9 14.1 51.6 10.3 11.8-2.9 15.6-4.6 22.7-9.7 4.6-3.4 6-5 10.1-11.3.7-1.1 2.1-3.4 3.2-5 3.9-5.7 5.2-12.6 4.7-24.7-.6-16.3-2.8-23.7-11.2-37-4.9-7.6-22.4-25.8-24.9-25.8-.8 0-1.9-.6-2.3-1.3-1.8-2.8-14.9-10.5-18.1-10.6-2.3-.1-2.4.1-1.7 4.8zm16.9 13.3c10.9 8.3 21.8 20.6 26.7 29.8 10.2 19.7 8.7 41.4-3.9 55.5-4.3 4.9-12 10.5-14.2 10.5-.9 0-3.2.8-5.1 1.7-2.7 1.4-5.8 1.7-15.8 1.6-7.4-.1-12.7-.5-13.4-1.2-.6-.6-1.8-1.1-2.6-1.1-.9 0-2.8-.6-4.3-1.4-1.4-.8-4.3-1.9-6.4-2.6-4.3-1.4-18.8-15.3-18.1-17.3.8-2.4 3.3-1.7 7.2 1.8 9.5 8.6 21.5 15.5 27 15.5 4.5 0 4.5-1.2 0-3.3-3.8-1.8-5-4.1-6.7-12.6-.9-4-.8-6.5 0-9.8.9-3.4.9-4.9 0-6.6-.6-1.2-1.2-4.2-1.2-6.7-.1-5.8-2.7-7.3-10.1-5.8-3.1.6-7.7.7-12 .1l-7-.8.2-3.5c.2-5 4.4-8.4 9.5-7.7 3.8.5 3.9.4 5.9-3.8 2.2-4.8 9.9-12.5 12.4-12.5 2.3 0 1.8 2.6-1 4.4-3.3 2.1-3.4 5.1-.2 4.1 1.2-.4 5.1-1.3 8.6-2s6.7-1.9 7.2-2.7c1.1-1.6 3.7-10.5 4.5-15 .9-5.3 4.7-11.8 6.8-11.8 1 0 3.7 1.4 6 3.2z"/><path d="M759 818.4c-.6.8-2.8 1.6-4.7 1.8-4.4.4-6.4 2.9-4.5 5.8 1.4 2.3.3 5.4-2.2 6.3-.8.3-1.6 1.6-1.8 2.9-.2 1.3-1.1 2.4-2.3 2.6-3.3.6-3.9 1.9-2.2 4.6 1.6 2.4 1.5 2.5-1.9 5.5-1.9 1.7-3.8 3.1-4.3 3.1-1.2 0-4.1 8.1-4.1 11.6 0 6.1 8.3 10.8 16.8 9.7 2.8-.4 4.4 0 6.2 1.5 2.3 1.9 2.5 2.7 2.5 10.3 0 7.2.2 8.4 1.8 8.7 5.1 1 15.7-8.4 20.7-18.2 3.3-6.5 3.8-10.7 1.5-12.6-2.1-1.7-1.9-2.5.9-3.8 2.6-1.2 4-6 2.3-8-.6-.7-1.1-3.4-1.2-6-.2-8.4-6-18.1-14.7-24.5-4.1-3-7-3.4-8.8-1.3zm1.5 21.6c1 1.1 2.6 2 3.5 2 1 0 3.4.7 5.5 1.6 3.3 1.3 3.6 1.7 2.4 3-.9.8-3.9 1.5-7.1 1.7-4.7.2-6-.2-8-2.1-1.6-1.4-3.7-2.2-5.9-2.2-4.7 0-5.4-.9-2.7-3.7 2.8-3 9.7-3.2 12.3-.3zm16.5 13.6c1.2 1.9 1.9 3.8 1.6 4.2-.8.8-5.5-4.8-5.6-6.6 0-2.3 1.8-1.2 4 2.4z"/></svg>
