<svg version="1" xmlns="http://www.w3.org/2000/svg" viewBox="0 0 900 1800"><path d="M460 17.7c-2.5.2-9.2.8-15 1.3-5.8.6-15.7 1.5-22 2.1-6.3.5-14.1 1.4-17.4 2-3.2.6-12.1 1.2-19.8 1.4-7.7.3-14.4.7-14.9 1.1-2 1.2-6.1 12.1-8 21.2-2.2 10.6-2.9 28.1-1.6 43.9.8 9.6.7 10.2-1.2 11.2-1.4.8-7 .7-20.3-.4-11.2-.9-40-1.7-74.3-2.1-30.8-.4-56.9-.7-58-.7-12.7-.3-94.6 1.6-99.5 2.3-3.6.5-13.9 1.2-23 1.5-9.1.3-19.4 1-23 1.6-3.6.5-10.1 1.1-14.5 1.3-4.4.2-12 .9-17 1.6-5 .7-11.1 1.2-13.7 1.1-4.2-.1-4.8.1-6.6 3.1-4.3 7.1-4.9 41.1-1.1 67.3.5 3.8 1.7 16.7 2.6 28.5 1.4 18.2 1.7 40.8 1.8 147.5 0 69.3.4 126.5.8 127.1.3.6 1.1 10.3 1.7 21.5.6 11.1 1.7 24.7 2.5 30 .8 5.4 1.2 10.5.9 11.3-.3.8 0 7.1.7 13.8 1.5 14.9 1.8 20.6 1.9 41.3.1 20.5-.6 30.1-4.1 53.2-.5 4-1.2 10.6-1.4 14.5-.9 14.4-2.7 31.3-3.7 33.5-.6 1.2-.8 3.7-.4 5.6.5 2.6.1 4.4-1.6 7.3l-2.2 3.7 1.2 26.5 1.2 26.5 7 7.1 7.1 7 53.2.1c39.6.1 58.8.6 75.2 1.8 18.4 1.4 27.5 1.6 55.5.9 18.4-.5 38.5-.8 44.5-.7 21.7.4 48 1.8 49.6 2.6 1.5.8 1.6 9.6 1.3 102.6-.2 56-.8 119.3-1.4 140.8-.5 21.4-1 47.1-1.1 57-.1 24.4-1.9 59.6-3.1 61.8-.8 1.6-2.2 1.8-13.1 1.5-9.6-.2-13.5.1-18.2 1.6-10.3 3.1-13.5 4.8-17.5 9.3-2 2.4-4.2 4.3-4.8 4.3-1.2 0-15.2 16.2-15.2 17.6 0 .5-1.3 3.6-2.9 6.9-5 10.5-8.1 22.2-8.1 30.6 0 6 1.6 14.6 3.4 18.4.8 1.6 1.8 4.3 2.1 6 .9 4.1 16.8 19.2 25.4 24 4.1 2.2 9.4 4.2 13.9 5.1 11.8 2.3 14.4 2 29.8-2.7 5.3-1.6 5.3-1.6 5.7 10.8.5 16.4 2.6 45.8 3.7 51.8.5 2.7 1.4 9.3 2 14.5.6 5.2 1.3 11.7 1.6 14.4.6 4.7.5 5-3.9 9.5-13.6 14-19.1 35.1-13.8 53.1 3 10.1 5.6 16.3 7.9 19 1.2 1.4 4.2 5 6.6 8.1l4.5 5.6-1.1 5.9c-1.6 9.2-2.1 41.6-.9 53.4 1.4 12.8 1.8 69 .6 71-1.3 2.1-3.1 26.1-5.5 76.3-.9 18.8-.8 22.9.6 30.5.8 4.8 2 9.1 2.5 9.7.5.5.9 2.8.9 5.1s.7 5.9 1.6 7.9c.8 2.1 1.3 4.7 1 5.8-.3 1.1.2 4 1.1 6.5 1.5 4.5 2.4 19.9 2.3 41.9 0 11.4 1.2 14.3 6 14.3 1.4 0 4.1.5 6 1 1.9.6 6.5 1.7 10.1 2.4 3.6.8 8.3 2.4 10.5 3.5 3.4 1.8 5.6 2.1 17.6 2.1 9 0 15.7-.5 19.5-1.5 6.4-1.7 20.6-2 26.7-.5 2.2.5 14.4 1.6 27 2.6 26.7 1.9 27.6 1.8 29.5-4.8.7-2.3 1.9-5.9 2.6-7.8 1.8-5.1 3.5-14.8 3.5-20.7 0-2.8.7-6.7 1.5-8.6.8-2 1.5-5.9 1.5-8.6 0-4.9.2-5.2 6.6-11.3 3.6-3.5 8.4-7.6 10.7-9.1 2.3-1.6 5.6-4.1 7.2-5.8 1.7-1.6 3.5-2.9 4.1-2.9.5 0 2.8-1.8 4.9-4 2.1-2.2 4.5-4 5.3-4 .7 0 2.7-1.4 4.4-3 1.6-1.7 4.2-3.7 5.7-4.4 5.1-2.7 21.1-20.2 21.1-23.1 0-.6.8-1.9 1.9-2.9 1-.9 2.8-3.8 4-6.4 1.3-2.6 2.9-5.8 3.7-7.2 5.4-9.7 10.9-22.9 13.4-31.5.4-1.7 2-6.4 3.4-10.5 2.7-7.8 6.2-20.5 7.7-27.5 5.6-27.2 7.8-45.9 8.3-71.4.8-45.2-3.8-77.1-15.6-107l-2.9-7.3 4.3-5.5c3.9-5.1 7.8-11.7 9.8-16.8 3.5-8.7 4.2-11.5 4.1-15.2-.1-2.3.3-4.5.9-4.8 2.2-1.4.7-19.6-2.7-31.5-2.3-8.2-8.6-18.3-14.8-23.7-3-2.6-5.5-5.3-5.5-5.9 0-.6 3.5-2.8 7.7-5 15.8-8 22.7-19.4 22.7-37.7 0-14.3-4.9-24.4-18.2-37.3-6.9-6.6-17.7-13.4-21.6-13.4-.8 0-1.7-.4-2-.9-.3-.5-1.8-1.1-3.3-1.4-1.6-.3-5.9-1.7-9.8-3.1-3.9-1.4-12.3-3.3-19-4.1-6.6-.9-13.9-2-16.3-2.6-2.4-.5-8.4-1.2-13.4-1.6-13-.9-13.2-1.2-11.9-14.3 2.6-26.3 3.1-88.8 1.8-213.4-.4-42.8-.3-72.7.3-83 .6-8.8 1.5-25.1 2-36.1 1.1-25.1 3.7-55.3 5-58.3 1-2.2 1.1-2.2 23.2-2.2 12.3 0 26.6-.5 31.8-1 5.2-.6 15.4-1.1 22.5-1.1 7.2-.1 17.5-.7 23-1.5s15.6-1.7 22.5-2.1c17.1-1 62.6-.6 73 .7 45.9 5.5 88.8 7.4 131.9 5.9l17.5-.7 4.3-4.8c2.4-2.7 5.9-6.7 7.8-9l3.5-4.1-1-14.9c-2.2-32-1.5-68.2 2.5-133.4.8-12.9 1.8-30.9 2.1-40 .4-9.1.8-16.8 1.1-17.2.2-.4.4-16.6.4-36 .1-32.9-.1-35.9-2.1-44.3-1.2-5-2.2-12-2.1-15.6 0-7.8 3-44 3.7-45.1.3-.5.9-5.2 1.4-10.6.4-5.3 1.3-13.5 1.9-18.2 3.9-30.6 4.5-43.9 4.6-91.5.1-55.9.7-65 5.2-84.5.8-3.6 1.7-8.1 1.9-10 .1-1.9 1-6.2 1.9-9.5.8-3.3 1.3-7 1-8.3-.3-1.2-.1-3.1.5-4.2 1.5-2.7 5-24.2 5-30.6 0-2.7.5-5.5 1-6 .6-.6 1.2-4.8 1.5-9.5.3-4.6 1.1-12.5 1.9-17.4 3.6-22.7 4.8-34.5 3.7-35.9-.7-.8-5.3-2.2-10.4-3.1-10.5-2-36.9-2.3-47.7-.5-13.6 2.3-24.7 4.3-30.5 5.5-3.3.8-9.8 2.1-14.5 3-4.7.9-10.2 2.1-12.4 2.7-2.1.5-6.6 1.2-10 1.4-3.3.3-7.7.9-9.6 1.4-1.9.4-7.8 1.1-13 1.5-5.2.3-13.3 1.1-18 1.6-9.2 1.1-140.6 1.3-168.5.3-23.7-.9-24.7-1.1-25.7-5.4-1.2-5.7-1.1-20.9.1-29.5 2.3-15.4 2.5-28.9.6-35.8-1.8-6.6-3.8-9.7-6.4-9.7-.9 0-3.6-.7-6-1.6-6.1-2.1-22.9-4.2-33.1-4.2-4.7.1-9.8-.1-11.5-.4-1.6-.3-5-.3-7.5-.1zm31.4 33.9c.3.9.6 4 .6 7 0 3.1.4 8.5 1 12.2 3.3 23.2 4.2 32.4 3.2 33.4-.6.6-3.5 1.1-6.4 1.1-10.7-.1-41-.1-64-.1-34.3.1-33.3.9-33.3-27.7v-18l9.5-.7c5.2-.3 14-1.4 19.5-2.3 5.5-.8 13.6-2 18-2.6 4.4-.5 8.7-1.2 9.5-1.5 2.4-1 17.4-2.1 30.1-2.3 9.8-.1 11.8.2 12.3 1.5zM328 127.9c12.3 1.4 29.4 3 37.5 3.6 3.9.2 9.7.9 13 1.5 10.2 1.7 31.6 4.2 39.4 4.6 4 .1 9.4.7 12 1.3 2.5.6 10.9 1.3 18.6 1.5 7.7.3 21.9 1 31.5 1.6 19.5 1.3 92.5.5 97.5-1 1.7-.5 13.9-1.2 27.3-1.4 15.4-.4 25-1 26.4-1.7 1.4-.8 5.9-1 13.2-.7 13.2.6 48.4-2.4 54.2-4.6 6.1-2.3 20.8-2.9 60.4-2.8 38 .2 76.6-1.1 83.5-2.7 5.6-1.4 6.8-.1 6.1 6.3-.4 2.8-1.3 13.6-2.1 24.1-3 39.8-3.6 46.2-4.5 52-.5 3.3-1 9-1 12.7 0 3.7-.5 7.9-1.1 9.5-.6 1.5-1.3 7.5-1.5 13.3-.2 5.8-.8 12.7-1.3 15.5-1 5.1-2.6 20.9-4.1 41.5-.5 6.3-1.4 13.3-1.9 15.5-.6 2.2-1.1 7.1-1.1 11 0 3.8-.5 8.9-1 11.2-.5 2.3-1.4 9-1.9 15-.6 5.9-1.5 15.3-2.1 20.8-.6 5.5-1.5 14.3-2.1 19.5-.5 5.2-1.2 12.6-1.4 16.5-.2 3.8-.9 10.6-1.5 15-3.9 29.4-7.3 91-7.4 136-.1 33.8.3 46.4 2.3 83.5 2.7 48 3.1 57.7 3.2 76.7.1 11.1-.1 20.5-.4 21-1.6 2.4-13.2 6.3-26.5 8.8-10.7 2-39.1 2-61.2 0-18.4-1.6-70-1.9-79-.4-3 .5-9.5 1.3-14.5 1.8-4.9.5-11.3 1.4-14.1 2-2.8.5-9.1 1-14 1-4.9.1-15.1.5-22.6 1-8.1.5-15.4.5-17.7 0-2.2-.5-11.6-1.1-20.8-1.4-9.2-.2-21.3-1-26.8-1.6-15.6-1.8-170.2-1.6-213 .3-20.2.9-59.4 1.6-96.5 1.7-34.4.1-69 .6-77 1-8 .5-19.9.7-26.5.5-24.6-.9-52-2-52.2-2.2-.9-.7-4.3-8.4-4.3-9.6 0-.8-.6-2.7-1.4-4.3-2.9-5.7-4.1-17.4-3.9-37.8.1-25.1 1.2-40.4 2.8-43.1 1-1.5 1.1-4.1.4-11-1.2-11.3-1.7-69.4-2.3-238.4-.6-167-1.7-239.1-4.2-268.3l-.5-6.7 11.3.4c6.2.3 18.7 1 27.8 1.6 9.1.6 18.8.8 21.5.6 2.8-.3 9.7-.8 15.5-1.1 30.2-1.7 58.4-4.2 67.3-6.1 3.8-.8 9.6-1.4 12.9-1.4 3.4 0 12.9-.7 21.2-1.6 8.3-.9 21.4-1.9 29.1-2.4 17.1-1 67.8-.4 79.5.9zm28.5 661.2c3.9 0 10.2.5 14 1 3.9.5 22.9 1.1 42.3 1.3 25.4.2 35.7.7 36.5 1.5.8.8 1.2 7.4 1.3 21.9 0 11.4.5 53.8 1 94.2 1.2 99.9 1 282.7-.4 286.1l-1 2.6-15.9.6c-21 .8-44.8 4.3-47.7 6.9-.6.4-2.2.8-3.7.8-3.9 0-13.5 3.9-16.5 6.6-1.4 1.3-3.1 2.4-3.8 2.4-3.4 0-14.3 10-18.8 17.2-1.3 2.1-3.1 3.8-4 3.8-2.4 0-3.4-4.5-1.9-8.5 2.1-5.9 1.3-19.7-2.5-44.6-1.9-12.5-2-24.6-.5-44.4.9-11.5 1.3-48 1.4-129.7.2-102.6.4-113.9 1.8-115.3 1.4-1.4 5.2-1.6 28.2-1.6h26.6l.7-3.6c.8-4.5-1.1-10.5-4.5-13.6-3.5-3.3-14.8-4.4-26.6-2.6-6.6.9-9.6.9-14.7 0-7-1.4-8.8-2.5-8.8-5.2 0-3.5 6.4-7 16.7-9 13.1-2.6 38.8-2.9 48.6-.5 10.1 2.4 18.5 2.2 21.4-.6 2.7-2.5 3-6.4.7-9.6-2.3-3.3-9.3-6.5-13.8-6.4-2.4.1-4.6-.4-5.7-1.4-2.8-2.5-18.3-2.9-30.5-.8-14.6 2.5-27 2.4-31.4-.2-4.5-2.6-5-5.7-1.5-8 3.1-2 7.1-2.2 26.5-1 12.6.8 13.9.7 18.3-1.2s5.4-2 13-1c9.5 1.3 14.4.6 17.6-2.3 1.8-1.7 2.1-2.7 1.5-5.2-1.1-5.1-3.2-7.5-9.3-10.5-9.5-4.8-17.6-5.7-36.9-4.3-21 1.5-34.1 1.6-35.5.2-1.2-1.2-2.8-12.7-2-14.7.7-1.8 3-2.3 8.3-1.8 2.5.2 7.7.5 11.5.5zm-63.1 396c5.8 2.1 7.1 3.4 13.9 13.8 3.6 5.5 4.2 7.2 4.1 11.5-.2 8-.9 13.3-2.1 14.8-.5.7-2.1 3.8-3.5 6.9-2.3 5.1-3.7 6.5-10.3 10.7-5.2 3.2-7.4 3.7-17.1 3.6-9.2-.1-10.7-.4-17.2-3.4-8.2-3.8-10.2-5.7-12.6-12.3-2.4-6.4-1.6-12.4 3.4-25.7 4.5-11.7 7.7-15.7 15.5-19.5 6.7-3.2 17.9-3.4 25.9-.4zm182.9 44c2.6.5 6.3.9 8.1.9 3.7 0 23.6 5 34.3 8.6 4.1 1.3 8.2 2.4 9.2 2.4s2.4.7 3.1 1.5c.7.8 2.5 1.5 4 1.5s3.3.7 4 1.5c.7.8 2 1.5 2.9 1.5.9 0 3.3 1.7 5.3 3.7 6.5 6.9 5.9 15.3-1.6 23.1-9.3 9.8-29.2 14.9-66.6 17.2-9.6.6-18.8 1.5-20.5 2-1.6.5-5.2.7-8 .4-2.7-.3-6.6-.6-8.5-.5-1.9 0-5.7-.4-8.5-.9-2.7-.6-10.3-1.2-16.9-1.5-6.5-.2-12.3-.9-13-1.4-.6-.5-3.3-1.2-6.1-1.6-2.7-.3-10.2-1.8-16.5-3.2-23.9-5.2-33.5-13.7-28.7-25.1 1.2-3 10.7-12.2 12.5-12.2.5 0 1.5-.7 2.2-1.5.7-.8 2.2-1.5 3.4-1.5 1.2 0 3.1-.7 4.2-1.4 1.2-.8 4.3-2 7-2.6 2.7-.6 6.7-1.9 8.9-3 3.5-1.6 15.2-4.2 32-7.2 14.6-2.6 42.3-3 53.8-.7zM370 1317.5c4.2.8 17.8 2.3 31.5 3.5 9.6.8 17.4.8 29.5 0 14.3-1 32.2-1.2 48-.5 2.5.1 8.5.7 13.3 1.4 4.9.6 9.7.9 10.6.6 1-.3 2.4.1 3.1 1 .7.8 2.2 1.5 3.4 1.5 2.1 0 10.7 2.5 13.8 4.1 1 .5 2.6.9 3.7.9 1 0 2.4.7 3.1 1.5.7.8 1.9 1.5 2.6 1.5 1.9 0 18.4 13 18.4 14.5 0 .7.7 1.8 1.6 2.6 1.3 1 1.5 3 1.2 10.3-.3 8.6-.5 9.3-3.8 13.4-1.9 2.4-4.8 5.2-6.6 6.2-4.7 3-20.5 4.3-41.3 3.6-9.7-.4-19.4-.7-21.5-.6-3.9 0-6.9-.4-25.1-3.7-4.9-.8-11-1.7-13.5-1.8-2.5-.1-5.8-.8-7.5-1.5-2.8-1.1-22.4-5.6-29-6.7-1.6-.2-4.3-1.1-6-1.8-3.3-1.5-9.9-3.7-19-6.4-6.5-1.9-8.7-2.8-18.3-7.2-3.4-1.6-6.7-2.9-7.2-2.9-.6 0-2.9-1.4-5.3-3.1-4.9-3.5-7.7-9-8.4-17-.5-5.1-.3-5.9 2.3-8.8 4.7-5.1 14.7-6.9 26.4-4.6zm-13.6 75c15.5 4.8 47.5 13.5 49.5 13.5 1.2 0 2.9.4 3.9 1 .9.5 6.4 2.1 12.2 3.4 5.8 1.4 15.2 3.6 20.8 5 5.7 1.3 11 2.2 11.7 2 .7-.3 2.3 0 3.5.6 2.3 1.2 15.1 3.3 30 4.9 12 1.3 17.1 3.2 19.4 7.6 1.7 3.2 1.7 3.4-.3 8-1.2 2.6-2.1 5.1-2.1 5.6 0 2.6-8.6 13.2-13.3 16.3-3 2-5.7 3.6-6.1 3.6-.4 0-1.9.9-3.4 1.9-1.5 1.1-6.8 2.7-12.3 3.6-12.6 2.2-28.3 1.5-43.9-2-6.3-1.4-12.8-2.9-14.5-3.2-1.6-.3-3.9-1.1-5-1.8s-6-2.5-11-4c-4.9-1.5-11.2-3.8-14-5.1-7.3-3.3-15.7-6.4-17.8-6.4-1 0-2-.7-2.3-1.5-.4-.8-1.7-1.5-3-1.5-1.4 0-2.7-.7-3-1.5-.4-.8-1.4-1.5-2.4-1.5-.9 0-2.5-.9-3.5-2s-2.4-2-3.1-2c-2 0-16.4-14-18.5-18.1-2.9-5.8-2.6-12.8.9-17.2 5.2-6.5 12.4-11.4 17.1-11.6 1.4-.1 6.1 1 10.5 2.4zm180.9 42.1c1.8 4.6 2.5 6.6 5.7 15.4.7 1.9 1.6 5.5 2 8 2 11.6 4.1 22.4 4.6 23.1 1.6 2.6 2.4 42.9 1.2 62.9-.9 16.1-7.3 51-10.4 57.2-.8 1.5-1.4 3.8-1.4 5.1 0 1.2-.4 2.7-.9 3.3-.5.5-3 6.1-5.4 12.5-6.9 17.6-15.1 31.7-28.5 49.3-8.6 11.2-23.9 24.6-28.1 24.6-3.9 0-6.7-13-10.1-48-.6-5.8-1-26.9-1-47s-.4-39.2-1-42.5c-.5-3.2-1.2-10.7-1.6-16.5-.3-5.8-1.3-12.9-2.1-15.7-2-6.6-1.3-7.6 6.4-9.2 9.6-2.1 15.4-4 24.2-8.3 6.7-3.3 10.3-6 17.8-13.4 5.4-5.3 10.2-11 11.4-13.5 1.1-2.4 3-6.2 4.2-8.4 2.7-4.9 4.4-9.5 5.7-16.1.6-2.7 1.5-6.9 2.1-9.4.5-2.5.9-7 .9-10-.1-3-.1-6.3-.1-7.3.2-3.3 2.4-1.2 4.4 3.9zm-195.7 45.7c2.8 1.8 7 4.4 9.2 5.9 2.3 1.6 4.8 2.8 5.5 2.8.8 0 2.5.8 3.8 1.8 1.3 1 4.4 2.6 6.9 3.6 2.5 1.1 7.7 3.3 11.5 5.1 8.4 3.8 17.5 7.4 34.6 13.4 4.7 1.7 9 3.1 9.5 3.1s3.2 1.1 5.9 2.4l5 2.5-.3 45.8c-.2 41.4.5 69.1 2.2 82.8.4 2.7.6 5.9.6 7-.2 18.8.1 37.4.9 51.5 1.3 25.3.9 57.6-.7 59.2-1.5 1.5-9.7 1.3-23-.7-5.5-.9-17.1-1.5-26.7-1.5-20.1-.1-40.5-1.4-43.3-2.9-3.6-1.9-4.1-15.5-4.2-113.6 0-50.6-.5-99.4-1.1-108.5-.5-9.1-1.2-21.9-1.5-28.5-.2-6.6-.9-14.7-1.4-18-2.2-14.1-2.2-16.5-.3-16.5 1 .1 4.1 1.5 6.9 3.3z"/><path d="M436.5 162.8c-2.5.6-3 1.2-3.1 3.9-.1 1.8-.4 5.2-.8 7.5-.7 4.9 1.6 15.4 4 17.8 1.9 1.9 11.6 1.7 16.4-.3 1.9-.8 5.7-1.8 8.3-2.1 6.2-.9 7.8-3.7 5.3-9-.9-1.8-1.6-3.8-1.6-4.3 0-1.6-4.7-10.8-6.2-12-1.6-1.4-18.1-2.4-22.3-1.5zM399 698.1c-3 .6-6.7.8-8.3.5-4.5-.9-7.4 1.1-9.1 6.5-1.9 5.8-2.1 15.4-.3 16.8 5.4 4.5 7.8 5.9 11.7 7 4.1 1.1 5.2 1 10-.9 6.7-2.6 9.7-5.2 12.1-10.5 2.5-5.4 2.3-9-.9-15-2.4-4.5-3.1-5-6.2-5.2-1.9 0-6 .3-9 .8z"/></svg>
